# xmcd CD database file
#
# Track frame offsets:
#	180
#	22049
#	35330
#	56904
#	69267
#	83898
#	95169
#	110447
#	132664
#	149970
#
# Disc length: 2197 seconds
#
# Revision: 0
# Processed by: cddbd v1.5.1PL0 Copyright (c) Steve Scherf et al.
# Submitted via: CDex 1.51
#
DISCID=9a08930a
DTITLE=Régis Gagné - Je suis toujours Régis Gagné
DYEAR=1900
DGENRE=Country
TTITLE0=Le rêve d'une jeune fille
TTITLE1=Oh! Belle-maman
TTITLE2=Comme un oiseau
TTITLE3=Laisse-toé pas faire
TTITLE4=Lâche pas
TTITLE5=Le lend'main d'la veille
TTITLE6=Les belles histoires
TTITLE7=L'amour de ma vie
TTITLE8=Ne pleure pas
TTITLE9=Je suis toujours Régis Gagné
EXTD=
EXTT0=
EXTT1=
EXTT2=
EXTT3=
EXTT4=
EXTT5=
EXTT6=
EXTT7=
EXTT8=
EXTT9=
PLAYORDER=
